<?xml version="1.0" encoding="UTF-8"?>
<svg version="1.1" xmlns="http://www.w3.org/2000/svg" width="300" height="68">
<path d="M0 0 C99 0 198 0 300 0 C300 22.44 300 44.88 300 68 C201 68 102 68 0 68 C0 45.56 0 23.12 0 0 Z " fill="#FEFEFE" transform="translate(0,0)"/>
<path d="M0 0 C7.96125 -0.0825 15.9225 -0.165 24.125 -0.25 C26.62852051 -0.28641602 29.13204102 -0.32283203 31.71142578 -0.36035156 C33.70604597 -0.3720391 35.70067573 -0.38223077 37.6953125 -0.390625 C39.23626587 -0.4213208 39.23626587 -0.4213208 40.80834961 -0.45263672 C46.89132342 -0.45559464 50.37106844 -0.05918124 55 4 C61.89478885 11.74642943 70.48279937 22.55028067 72 33 C67.32263402 32.15678649 65.19024152 29.26137123 62.1875 25.8125 C61.11692549 24.62678732 60.04402846 23.44316726 58.96875 22.26171875 C58.45570312 21.69630371 57.94265625 21.13088867 57.4140625 20.54833984 C52.43091948 14.80993363 52.43091948 14.80993363 45.375 12.8125 C38.91615524 15.08505649 35.21182312 21.10435096 31.25 26.4375 C30.46774048 27.48550781 30.46774048 27.48550781 29.66967773 28.5546875 C24.78301339 35.17093939 20.34280351 42.01954283 16 49 C15.46246094 49.82757813 14.92492187 50.65515625 14.37109375 51.5078125 C12.33505664 54.65177864 10.76850822 57.33357538 10 61 C13.60059144 62.10007225 17.03618571 62.19442114 20.78808594 62.29711914 C21.46166641 62.31677231 22.13524689 62.33642548 22.82923889 62.35667419 C25.04752205 62.42035817 27.26592024 62.47778932 29.484375 62.53515625 C31.02566592 62.57818189 32.56694598 62.62159853 34.10821533 62.66539001 C38.15885574 62.77942935 42.20962183 62.88816183 46.26043701 62.99578857 C50.39636997 63.10661685 54.53216199 63.22246515 58.66796875 63.33789062 C66.77851633 63.5635062 74.88920358 63.78351542 83 64 C83 65.32 83 66.64 83 68 C55.61 68 28.22 68 0 68 C0 45.56 0 23.12 0 0 Z " fill="#D486B2" transform="translate(0,0)"/>
<path d="M0 0 C13.53 0 27.06 0 41 0 C39.35 1.32 37.7 2.64 36 4 C27.68519435 13.57988699 20.94374998 24.4418964 14.0625 35.0625 C12.52140155 37.43147123 10.97879318 39.79944609 9.43492126 42.16661072 C8.48473252 43.62448032 7.53635597 45.08353323 6.59010315 46.54396057 C6.16212936 47.20242477 5.73415558 47.86088898 5.29321289 48.53930664 C4.92144424 49.11298477 4.5496756 49.6866629 4.16664124 50.27772522 C2.8433653 52.23123474 1.41570234 54.11239688 0 56 C0 37.52 0 19.04 0 0 Z " fill="#FEFDFE" transform="translate(0,0)"/>
<path d="M0 0 C0.33 0.66 0.66 1.32 1 2 C-0.19066418 4.54820175 -1.57836977 6.95027239 -2.96875 9.39453125 C-4.2009237 12.50763677 -4.29934744 13.91404984 -3 17 C1.02868057 19.15051646 4.53945047 19.2337068 9.05078125 19.1953125 C9.70958786 19.1924826 10.36839447 19.18965271 11.04716492 19.18673706 C13.13580062 19.17560924 15.22399556 19.15051948 17.3125 19.125 C18.73501982 19.11496059 20.1575464 19.10583642 21.58007812 19.09765625 C25.05368873 19.07740196 28.52635539 19.03824196 32 19 C24.08 18.67 16.16 18.34 8 18 C8 17.67 8 17.34 8 17 C31.01961536 16.84457515 53.99242853 17.26886014 77 18 C77 19.32 77 20.64 77 22 C49.61 22 22.22 22 -6 22 C-6 8.5 -6 8.5 -3 4.25 C-2.443125 3.43015625 -1.88625 2.6103125 -1.3125 1.765625 C-0.6628125 0.89164063 -0.6628125 0.89164063 0 0 Z " fill="#AC7EEA" transform="translate(6,46)"/>
<path d="M0 0 C0.4125 0.474375 0.825 0.94875 1.25 1.4375 C4.94424945 4.73593701 9.71457509 4.16633871 14.43066406 4.20532227 C15.54344727 4.22017166 15.54344727 4.22017166 16.67871094 4.23532104 C19.12431679 4.26684147 21.56994205 4.29165595 24.015625 4.31640625 C25.7138519 4.33698395 27.41207377 4.35798064 29.11029053 4.37937927 C33.5752759 4.43451567 38.04030685 4.48396207 42.50537109 4.53222656 C47.06351772 4.58250322 51.62159834 4.63815709 56.1796875 4.69335938 C65.11973525 4.80083778 74.05984036 4.90230559 83 5 C83 5.33 83 5.66 83 6 C55.61 6 28.22 6 0 6 C0 4.02 0 2.04 0 0 Z " fill="#C2A2F2" transform="translate(0,62)"/>
<path d="M0 0 C-0.845625 0.515625 -1.69125 1.03125 -2.5625 1.5625 C-6.54229113 4.19353136 -9.72851673 7.55429572 -13 11 C-13 7.36561171 -11.77744211 6.09615237 -9.43359375 3.43359375 C-6.29342567 0.29342567 -4.338673 -1.44622433 0 0 Z " fill="#F5A39F" transform="translate(44,1)"/>
<path d="M0 0 C0.39832031 0.47050781 0.79664062 0.94101562 1.20703125 1.42578125 C3.3617393 3.31760553 4.89091882 3.66060789 7.6875 4.1875 C8.49574219 4.34605469 9.30398438 4.50460938 10.13671875 4.66796875 C11.05904297 4.83232422 11.05904297 4.83232422 12 5 C12 5.33 12 5.66 12 6 C8.04 6 4.08 6 0 6 C0 4.02 0 2.04 0 0 Z " fill="#F2EBFB" transform="translate(0,62)"/>
<path d="M0 0 C0.66 0.33 1.32 0.66 2 1 C-0.31 3.31 -2.62 5.62 -5 8 C-5.66 7.67 -6.32 7.34 -7 7 C-2.25 1.125 -2.25 1.125 0 0 Z " fill="#F9E7EB" transform="translate(42,13)"/>
</svg>
